# xmcd
#
# Track frame offsets:
#	150
#	18887
#	39505
#	63010
#	79812
#	103677
#	117757
#	130082
#	154787
#	173470
#
# Disc length: 2626 seconds
#
# Revision: 2
# Processed by: cddbd v1.5.2PL0 Copyright (c) Steve Scherf et al.
# Submitted via: audiograbber 1.83.01
#
DISCID=6b0a400a
DTITLE=Black Crowes, The - Shake Your Money Maker
DYEAR=1990
DGENRE=Rock
TTITLE0=Twice as Hard
TTITLE1=Jealous Again
TTITLE2=Sister Luck
TTITLE3=Could I've Been So Blind
TTITLE4=Seeing Things
TTITLE5=Hard to Handle
TTITLE6=Thick n' Thin
TTITLE7=She Talks to Angels
TTITLE8=Struttin' Blues
TTITLE9=Stare it Cold
EXTD=
EXTT0=
EXTT1=
EXTT2=
EXTT3=
EXTT4=
EXTT5=
EXTT6=
EXTT7=
EXTT8=
EXTT9=
PLAYORDER=
